<svg width="21" height="21" viewBox="0 0 21 21" fill="none" xmlns="http://www.w3.org/2000/svg">
<path d="M1.875 1.875L7.8125 7.8125M1.875 1.875C1.875 1.875 5.87468 3.51333 8.4375 4.0625C11.0003 4.61167 15 4.6875 15 4.6875L15.6597 10.625M1.875 1.875C1.875 1.875 3.76481 5.87468 4.375 8.4375C4.98519 11.0003 5 15 5 15L10.9375 15.9375M10.9375 15.9375L10.3125 16.5625L13.4375 19.375L19.375 12.8125L16.25 10L15.6597 10.625M10.9375 15.9375L15.6597 10.625M7.8125 7.8125C7.8125 7.8125 7.15349 9.74632 7.8125 10.625C8.69118 11.7966 10.8423 11.9001 11.5625 10.625C12.1158 9.64532 11.7918 8.54473 10.9375 7.8125C10.0109 7.01828 7.8125 7.8125 7.8125 7.8125Z" stroke="#726D6D"/>
</svg>
