<svg width="16" height="18" viewBox="0 0 16 18" fill="none" xmlns="http://www.w3.org/2000/svg">
<path d="M8.25 0.875L8.25001 1.375L8.25 0.875ZM12.9375 9.31258L12.4562 9.44795L12.9375 9.31258ZM2.625 9.31258L3.10919 9.43731L2.625 9.31258ZM3.25 4.625L3.74497 4.69571L3.25 4.625ZM10.2976 15.9963C10.3645 15.7284 10.2017 15.4569 9.93377 15.3899C9.66587 15.323 9.3944 15.4858 9.32743 15.7537L10.2976 15.9963ZM6.54757 15.7537C6.4806 15.4858 6.20913 15.323 5.94123 15.3899C5.67333 15.4569 5.51045 15.7284 5.57743 15.9963L6.54757 15.7537ZM1.21937 12.3463L0.791408 12.0878L1.21937 12.3463ZM8.25001 1.375C9.5416 1.37497 10.3293 1.77279 10.8405 2.33811C11.3695 2.92302 11.6597 3.74975 11.8193 4.7072L12.8057 4.5428C12.6332 3.50763 12.2984 2.45933 11.5823 1.66738C10.8484 0.855848 9.7709 0.374969 8.24999 0.375L8.25001 1.375ZM11.8193 4.7072C11.9701 5.61195 11.976 6.21662 12.0202 6.91068C12.0647 7.61052 12.1473 8.34956 12.4562 9.44795L13.4188 9.1772C13.133 8.16094 13.0593 7.49369 13.0181 6.84716C12.9766 6.19484 12.9674 5.51305 12.8057 4.5428L11.8193 4.7072ZM12.4562 9.44795C12.7519 10.4994 13.4327 11.6537 14.0406 12.5524L14.8689 11.9921C14.2728 11.1108 13.669 10.0667 13.4188 9.1772L12.4562 9.44795ZM1.64734 12.6049C2.20204 11.6867 2.83716 10.4933 3.10919 9.43731L2.14081 9.18785C1.9071 10.0951 1.33708 11.1845 0.791408 12.0878L1.64734 12.6049ZM3.10919 9.43731C3.39102 8.34326 3.47357 7.68919 3.52433 7.02975C3.57429 6.38069 3.59177 5.76814 3.74497 4.69571L2.75503 4.55429C2.59573 5.66936 2.5747 6.33697 2.52728 6.95301C2.48066 7.55867 2.40696 8.15464 2.14081 9.18785L3.10919 9.43731ZM3.74497 4.69571C3.89794 3.62494 4.31822 2.81619 5.01302 2.26742C5.71468 1.71325 6.75852 1.37503 8.25001 1.375L8.24999 0.375C6.61648 0.375033 5.32698 0.745179 4.39322 1.48267C3.45261 2.22557 2.93538 3.29179 2.75503 4.55429L3.74497 4.69571ZM13.5895 13.5001H7.9375V14.5001H13.5895V13.5001ZM7.9375 13.5001H2.10928V14.5001H7.9375V13.5001ZM7.9375 17.625C8.87292 17.625 9.47563 17.2425 9.83723 16.8293C10.0123 16.6292 10.1246 16.4296 10.1938 16.2786C10.2286 16.2028 10.2531 16.1379 10.2695 16.0894C10.2778 16.0651 10.284 16.0447 10.2886 16.029C10.2909 16.0212 10.2928 16.0145 10.2943 16.009C10.295 16.0062 10.2956 16.0038 10.2962 16.0017C10.2965 16.0006 10.2967 15.9996 10.2969 15.9987C10.2971 15.9983 10.2972 15.9979 10.2973 15.9974C10.2973 15.9972 10.2974 15.9969 10.2974 15.9968C10.2975 15.9966 10.2976 15.9963 9.8125 15.875C9.32743 15.7537 9.3275 15.7535 9.32757 15.7532C9.32759 15.7531 9.32765 15.7528 9.32769 15.7527C9.32778 15.7523 9.32786 15.752 9.32794 15.7517C9.32809 15.7511 9.32823 15.7506 9.32835 15.7501C9.32859 15.7492 9.32876 15.7486 9.32886 15.7482C9.32906 15.7474 9.32899 15.7477 9.32861 15.749C9.32785 15.7517 9.32588 15.7582 9.32253 15.7681C9.31579 15.7879 9.30366 15.8207 9.28473 15.862C9.24648 15.9454 9.183 16.0583 9.08465 16.1707C8.89937 16.3825 8.56458 16.625 7.9375 16.625V17.625ZM7.9375 16.625C7.31042 16.625 6.97563 16.3825 6.79035 16.1707C6.692 16.0583 6.62852 15.9454 6.59027 15.862C6.57134 15.8207 6.55921 15.7879 6.55247 15.7681C6.54912 15.7582 6.54715 15.7517 6.54639 15.749C6.54601 15.7477 6.54594 15.7474 6.54614 15.7482C6.54624 15.7486 6.54641 15.7492 6.54665 15.7501C6.54677 15.7506 6.54691 15.7511 6.54706 15.7517C6.54714 15.752 6.54722 15.7523 6.5473 15.7527C6.54735 15.7528 6.54741 15.7531 6.54743 15.7532C6.5475 15.7535 6.54757 15.7537 6.0625 15.875C5.57743 15.9963 5.5775 15.9966 5.57757 15.9968C5.5776 15.9969 5.57767 15.9972 5.57772 15.9974C5.57783 15.9979 5.57794 15.9983 5.57805 15.9987C5.57828 15.9996 5.57854 16.0006 5.57881 16.0017C5.57936 16.0038 5.58001 16.0062 5.58075 16.009C5.58223 16.0145 5.5841 16.0212 5.58639 16.029C5.59097 16.0447 5.59725 16.0651 5.60549 16.0894C5.62194 16.1379 5.64644 16.2028 5.68121 16.2786C5.75039 16.4296 5.86269 16.6292 6.03777 16.8293C6.39937 17.2425 7.00208 17.625 7.9375 17.625V16.625ZM0.791408 12.0878C0.183497 13.094 0.8645 14.5001 2.10928 14.5001V13.5001C1.71179 13.5001 1.40605 13.0043 1.64734 12.6049L0.791408 12.0878ZM14.0406 12.5524C14.3175 12.9616 13.9985 13.5001 13.5895 13.5001V14.5001C14.8846 14.5001 15.5469 12.9944 14.8689 11.9921L14.0406 12.5524Z" fill="#726D6D"/>
</svg>
