<svg width="16" height="19" viewBox="0 0 16 19" fill="none" xmlns="http://www.w3.org/2000/svg">
<path d="M14.875 13.75V2.25C14.875 1.69772 14.4273 1.25 13.875 1.25H2.0625M14.875 13.75H2.0625M14.875 13.75C14.875 13.75 13.2438 15.6171 13.625 16.875V16.875C13.8192 17.5159 13.5199 18.4375 12.8502 18.4375H2.0625C2.0625 18.4375 0.5 18.125 0.5 16.875M2.0625 13.75V1.25M2.0625 13.75C2.0625 13.75 0.5 15 0.5 16.875M2.0625 1.25L0.731779 2.84687C0.582016 3.02658 0.5 3.25206 0.5 3.486C0.5 5.14619 0.5 12.1675 0.5 16.875" stroke="#726D6D"/>
</svg>
