<svg width="17" height="18" viewBox="0 0 17 18" fill="none" xmlns="http://www.w3.org/2000/svg">
<path d="M15.875 10.8125V3.125C15.875 2.02043 14.9796 1.125 13.875 1.125H2.875C1.77043 1.125 0.875 2.01939 0.875 3.12396C0.875 5.79383 0.875 10.6623 0.875 14.7513C0.875 15.8559 1.77038 16.75 2.87495 16.75C3.44587 16.75 4.03213 16.75 4.625 16.75M15.875 10.8125V14.75C15.875 15.8546 14.9822 16.75 13.8776 16.75C11.6944 16.75 8.04952 16.75 4.625 16.75M15.875 10.8125L13.197 8.3258C12.3027 7.49532 10.8795 7.6526 10.188 8.65833L4.625 16.75M6.8125 6.75C7.58915 6.14594 7.72906 5.02665 7.125 4.25C6.45068 3.38302 4.98682 3.38302 4.3125 4.25C3.70844 5.02665 3.84835 6.14594 4.625 6.75C5.29932 7.27447 6.13818 7.27447 6.8125 6.75Z" stroke="#726D6D"/>
</svg>
