<svg width="63" height="28" viewBox="0 0 63 28" fill="none" xmlns="http://www.w3.org/2000/svg">
<path d="M15.4056 0L20.5759 3.17419L25.6786 6.3603L20.7931 9.28859L15.4056 5.94197L10.0014 9.29713L5.12421 6.3603L10.2353 3.17419L15.4056 0Z" fill="#2B74E3"/>
<path d="M5.11586 18.6455L9.91773 21.6421L15.414 25.0485L15.4056 19.081L10.0015 15.7343L10.0015 9.29714L5.12431 6.3603L5.11586 12.4816L5.11586 18.6455Z" fill="#4DB5FB"/>
<path d="M25.7007 18.6454L20.8989 21.642L15.414 25.0484L15.4056 19.0809L20.8151 15.7341L20.7931 9.28848L25.6786 6.36026L25.7007 12.4814L25.7007 18.6454Z" fill="#3EC4BC"/>
<path d="M38.5637 19.3011C36.7094 19.3011 35.174 18.687 33.9575 17.4586C32.741 16.2303 32.1328 14.7008 32.1328 12.8702C32.1328 11.0395 32.741 9.51004 33.9575 8.28173C35.174 7.05341 36.7094 6.43926 38.5637 6.43926C40.0636 6.43926 41.3569 6.86444 42.4435 7.71481C43.5419 8.56518 44.2624 9.67539 44.6049 11.0454H41.3805C41.1325 10.5021 40.7605 10.077 40.2644 9.76988C39.7802 9.4628 39.2133 9.30926 38.5637 9.30926C37.548 9.30926 36.7271 9.63996 36.1012 10.3014C35.487 10.9628 35.1799 11.819 35.1799 12.8702C35.1799 13.9213 35.487 14.7776 36.1012 15.439C36.7271 16.1004 37.548 16.4311 38.5637 16.4311C39.2133 16.4311 39.7802 16.2776 40.2644 15.9705C40.7605 15.6634 41.1325 15.2382 41.3805 14.6949H44.6049C44.2624 16.065 43.5419 17.1752 42.4435 18.0256C41.3569 18.8759 40.0636 19.3011 38.5637 19.3011ZM46.4682 19.0708V6.66957H49.48V19.0708H46.4682ZM58.2418 6.66957H61.2535V19.0708H58.2418V14.8721C57.5213 15.1792 56.73 15.3327 55.8678 15.3327C54.486 15.3327 53.3994 14.9725 52.6081 14.252C51.8168 13.5316 51.4211 12.4509 51.4211 11.01V6.66957H54.4683V10.6202C54.4683 11.3053 54.6336 11.7836 54.9643 12.0552C55.3068 12.3269 55.8265 12.4627 56.5233 12.4627C57.3028 12.4627 57.8757 12.3328 58.2418 12.073V6.66957Z" fill="#2B74E3"/>
</svg>
